<?xml version="1.0" encoding="UTF-8"?>
<svg id="Camada_1" data-name="Camada 1" xmlns="http://www.w3.org/2000/svg" viewBox="0 0 1024 1024">
  <defs>
    <style>
      .cls-1 {
        fill: #db2b39;
        stroke-width: 0px;
      }
    </style>
  </defs>
  <path class="cls-1" d="M874.79,260.84v-55.81h-55.81v-55.81h-55.81v-55.81h-502.33v55.81h-55.81v55.81h-55.81v55.81h-55.81v502.32h55.81v55.81h55.81v55.81h55.81v55.81h353.4c-38.73-25.36-75.74-49.94-108.58-71.81-7.02-4.7-13.32-11.65-17.22-19-5.46-10.01-5.69-21.27-.62-30.13,4.8-8.39,13.83-13.58,24.13-13.91,1.99-.06,4.03.05,6.01.33,13.25,1.72,26.03,7.4,34.5,11.53,12.77,6.25,25.2,13.36,37.21,20.24,3.94,2.25,7.87,4.51,11.86,6.75,2.14,1.22,5.09,2.89,6.59,2.85.18,0,.72-.02,1.88-1.05,1.5-1.3,2.33-2.01-.31-8.59l-12.1-30.64c-30.6-77.47-62.24-157.58-92.81-236.59-4.32-11.25-6.83-24.3-7.25-37.68-.28-7.16,2.16-13.89,6.87-18.93,5.06-5.43,12.23-8.56,20.19-8.81,2.81-.09,5.64.2,8.54.86,13.44,3.27,23.35,11.88,29.44,25.59,18.36,41.31,36.61,82.71,54.86,124.11,11.54,26.18,23.08,52.36,34.72,78.68.47,1.13.91,2.26,1.36,3.39.41,1.04.81,2.07,1.13,2.86,1.28,2.79,3.2,6.1,5.09,6.04.5-.02,1.4-.16,2.73-.72,3.12-1.35,5-2.16,1.75-9.87l-18.96-44.58c-2.57-6.23-5.18-12.46-7.84-18.8l-4.33-10.33-2.1-5.03,3.98-3.71c9.87-9.2,20.38-13.85,32.12-14.21,1.96-.06,3.98,0,5.98.18,10.45.9,25.18,4.16,32.48,21.91,5.09,12.63,11.28,25.23,17.27,37.42,2.17,4.41,4.33,8.82,6.47,13.26,1.02,2.14,2.67,4.68,4.74,4.61.74-.02,1.65-.28,2.69-.76,2.63-1.21,4.36-2.01,1.52-8.22-7.85-17.39-16.02-34.92-23.92-51.88l-2.78-5.98,5.42-3.76c7.66-5.31,16.68-8.27,26.1-8.57,19.66-.61,37.95,10.53,45.49,27.69l3.94,8.9c3.14,7.12,6.28,14.26,9.55,21.27,1.45,3.04,2.9,4.55,4.3,4.51.58-.02,1.6-.2,3.16-.93,2.83-1.34,4.33-2.35,2.16-7.52-1.49-3.55-3.09-7.07-4.68-10.59-1.17-2.57-2.33-5.14-3.49-7.78l-4.77-11.19-2.79-6.55-2.63-6.17,5.69-3.54c6.34-3.95,13.07-6.06,20.01-6.27,5.57-.17,11.24.82,17.33,3.06,14.84,5.47,26.39,16.05,35.32,32.35,17.04,31.07,28.9,63.61,39.09,98.24h19.86v-502.32h-55.81ZM630.34,569.59c-.47,1.14-1.38,2.1-2.08,3.14-.75-1.01-1.78-1.91-2.19-3.04-1.72-4.71-3.45-9.43-4.82-14.25-2.24-7.92-4.52-15.85-6.16-23.91-.85-4.16-.5-8.61-.42-12.92.41-22.63-11.09-45.51-27.36-60.74-17.84-16.7-38.9-25.46-63.47-24.93-12.64.27-24.66,3.48-36.25,8.48-12.19,5.26-22.89,12.57-30.96,23.16-12.84,16.85-21.4,35.49-21.87,57.11-.27,12.64,3.23,24.54,7.45,36.32,3.24,9.04,9,16.45,14.63,23.97,3.71,4.95,6.46,10.4,8.39,16.21,3,8.99,5.71,18.08,8.53,27.13.11.36.1.75.19,1.46-.24-1.9-12.98-8.32-15.01-9.77-5.03-3.62-10.06-7.5-14.42-11.93-8.1-8.23-15.3-16.58-20.35-27.13-9.05-18.93-15.4-39.83-13.96-60.91,1.8-26.42,10.8-49.98,28.24-69.97,15.63-17.92,35.1-29.94,58.25-35.6,18.81-4.6,37.93-5.73,56.57-.03,24.85,7.6,46.98,19.97,62.95,41.41,10.38,13.93,17.08,29.52,21.02,46.38,5.67,24.25,2.41,47.59-6.92,70.34ZM695.64,557.5c-2.75,12.22-7.03,24.1-10.79,36.08-1.21,3.85-1.47,3.78-5.29,2.37-6.5-2.4-12.98-4.82-19.82-7.36,1.25-3.04,2.62-6.18,3.84-9.37,8.87-23.22,13.19-47.15,10.59-72.04-1.48-14.15-5.04-27.84-10.47-41.01-13.13-31.87-34.63-56.46-64.48-73.56-24.72-14.16-51.45-20.73-79.92-19.58-48.09,1.95-87,22.06-115.82,60.58-40.84,54.59-38.35,133.37,5.25,185.63,15.61,18.71,35.46,32.9,57.71,42.67,3.77,1.66,7.52,3.37,11.24,5.13.6.29,1.31.9,1.47,1.49,2.27,8.35,4.46,16.73,6.73,25.33-.61-.06-1.05-.06-1.47-.15-14.38-3.29-27.73-9.2-40.7-16.06-13.95-7.37-27.35-15.61-38.98-26.39-17.33-16.06-30.87-34.88-40.53-56.48-6.15-13.75-10.63-27.99-12.97-42.89-5.65-35.89-.78-70.28,14.48-103.24,11.26-24.32,27.74-44.52,48.1-61.71,14.79-12.48,31.39-21.9,49.52-28.44,8.55-3.08,17.53-5.06,26.42-7.12,15.74-3.66,31.72-4.64,47.84-3.28,26.69,2.25,51.47,10.25,74.73,23.65,32.83,18.91,56.98,45.61,72.41,80.01,15.21,33.92,19.11,69.35,10.92,105.71Z"/>
</svg>