<?xml version="1.0" encoding="UTF-8"?>
<svg id="Camada_1" data-name="Camada 1" xmlns="http://www.w3.org/2000/svg" viewBox="0 0 1000 200.17">
  <defs>
    <style>
      .cls-1 {
        fill: #db2b39;
      }

      .cls-1, .cls-2 {
        stroke-width: 0px;
      }

      .cls-2 {
        fill: #1e6ba5;
      }
    </style>
  </defs>
  <g>
    <path class="cls-2" d="M31.23,119.12c0-32.63,26.52-59.57,59.57-59.57,20,0,37.89,10.1,48.84,25.26l-28.21,18.73c-4.63-5.68-12.42-9.26-20.63-9.26-14.1,0-25.05,11.16-25.05,24.84s10.95,25.26,25.05,25.26c8.63,0,16.63-4,21.26-10.74l28.21,18.95c-10.74,16-29.05,26.52-49.47,26.52-33.05,0-59.57-26.94-59.57-59.99Z"/>
    <path class="cls-2" d="M154.59,21.06h34.1v158.05h-34.1V21.06Z"/>
    <path class="cls-2" d="M210.8,61.23h34.1v117.88h-34.1V61.23Z"/>
    <path class="cls-2" d="M261.95,119.12c0-32.63,26.52-59.57,59.57-59.57,20,0,37.89,10.1,48.84,25.26l-28.21,18.73c-4.63-5.68-12.42-9.26-20.63-9.26-14.1,0-25.05,11.16-25.05,24.84s10.95,25.26,25.05,25.26c8.63,0,16.63-4,21.26-10.74l28.21,18.95c-10.74,16-29.05,26.52-49.47,26.52-33.05,0-59.57-26.94-59.57-59.99Z"/>
    <path class="cls-2" d="M390.82,21.06h31.2v83.08l33.63-36.47h37.28l-40.53,46,43.97,65.45h-37.89l-26.75-40.73-9.73,9.93v30.8h-31.2V21.06Z"/>
    <path class="cls-2" d="M227.85,21.22c9.17,0,16.85,7.68,16.85,17.04s-7.68,16.85-16.85,16.85-16.85-7.68-16.85-16.85,7.68-17.04,16.85-17.04Z"/>
  </g>
  <g>
    <polygon class="cls-1" points="650.24 73.85 650.24 42.27 639.71 42.27 639.71 31.75 629.19 31.75 629.19 21.22 534.46 21.22 534.46 31.75 523.93 31.75 523.93 42.27 513.4 42.27 513.4 105.43 523.93 105.43 523.93 115.95 576.56 115.95 576.56 126.48 513.4 126.48 513.4 158.06 523.93 158.06 523.93 168.58 534.46 168.58 534.46 179.11 629.19 179.11 629.19 168.58 639.71 168.58 639.71 158.06 650.24 158.06 650.24 94.9 639.71 94.9 639.71 84.38 587.08 84.38 587.08 73.85 650.24 73.85"/>
    <polygon class="cls-1" points="968.77 73.85 968.77 42.27 958.24 42.27 958.24 31.75 947.71 31.75 947.71 21.22 852.98 21.22 852.98 31.75 842.46 31.75 842.46 42.27 831.93 42.27 831.93 105.43 842.46 105.43 842.46 115.95 895.09 115.95 895.09 126.48 831.93 126.48 831.93 158.06 842.46 158.06 842.46 168.58 852.98 168.58 852.98 179.11 947.71 179.11 947.71 168.58 958.24 168.58 958.24 158.06 968.77 158.06 968.77 94.9 958.24 94.9 958.24 84.38 905.61 84.38 905.61 73.85 968.77 73.85"/>
    <path class="cls-1" d="M809.5,52.8v-10.53h-10.53v-10.53h-10.53v-10.53h-94.73v10.53h-10.53v10.53h-10.53v10.53h-10.53v94.73h10.53v10.53h10.53v10.53h10.53v10.53h66.65c-7.3-4.78-14.28-9.42-20.48-13.54-1.32-.89-2.51-2.2-3.25-3.58-1.03-1.89-1.07-4.01-.12-5.68.91-1.58,2.61-2.56,4.55-2.62.37-.01.76,0,1.13.06,2.5.32,4.91,1.4,6.51,2.17,2.41,1.18,4.75,2.52,7.02,3.82.74.42,1.48.85,2.24,1.27.4.23.96.55,1.24.54.03,0,.14,0,.35-.2.28-.24.44-.38-.06-1.62l-2.28-5.78c-5.77-14.61-11.74-29.72-17.5-44.62-.82-2.12-1.29-4.58-1.37-7.11-.05-1.35.41-2.62,1.29-3.57.95-1.02,2.31-1.61,3.81-1.66.53-.02,1.06.04,1.61.16,2.54.62,4.4,2.24,5.55,4.83,3.46,7.79,6.9,15.6,10.35,23.41,2.18,4.94,4.35,9.87,6.55,14.84.09.21.17.43.26.64.08.2.15.39.21.54.24.53.6,1.15.96,1.14.09,0,.26-.03.52-.14.59-.25.94-.41.33-1.86l-3.58-8.41c-.48-1.17-.98-2.35-1.48-3.55l-.82-1.95-.4-.95.75-.7c1.86-1.73,3.84-2.61,6.06-2.68.37-.01.75,0,1.13.03,1.97.17,4.75.78,6.12,4.13.96,2.38,2.13,4.76,3.26,7.06.41.83.82,1.66,1.22,2.5.19.4.5.88.89.87.14,0,.31-.05.51-.14.5-.23.82-.38.29-1.55-1.48-3.28-3.02-6.59-4.51-9.78l-.52-1.13,1.02-.71c1.44-1,3.15-1.56,4.92-1.62,3.71-.12,7.16,1.99,8.58,5.22l.74,1.68c.59,1.34,1.19,2.69,1.8,4.01.27.57.55.86.81.85.11,0,.3-.04.6-.18.53-.25.82-.44.41-1.42-.28-.67-.58-1.33-.88-2-.22-.48-.44-.97-.66-1.47l-.9-2.11-.53-1.24-.5-1.16,1.07-.67c1.2-.74,2.47-1.14,3.77-1.18,1.05-.03,2.12.16,3.27.58,2.8,1.03,4.98,3.03,6.66,6.1,3.21,5.86,5.45,12,7.37,18.53h3.74V52.8h-10.53ZM763.4,111.03c-.09.22-.26.4-.39.59-.14-.19-.34-.36-.41-.57-.32-.89-.65-1.78-.91-2.69-.42-1.49-.85-2.99-1.16-4.51-.16-.79-.09-1.62-.08-2.44.08-4.27-2.09-8.58-5.16-11.45-3.36-3.15-7.34-4.8-11.97-4.7-2.38.05-4.65.66-6.84,1.6-2.3.99-4.32,2.37-5.84,4.37-2.42,3.18-4.04,6.69-4.12,10.77-.05,2.38.61,4.63,1.41,6.85.61,1.7,1.7,3.1,2.76,4.52.7.93,1.22,1.96,1.58,3.06.57,1.7,1.08,3.41,1.61,5.12.02.07.02.14.04.28-.04-.36-2.45-1.57-2.83-1.84-.95-.68-1.9-1.41-2.72-2.25-1.53-1.55-2.89-3.13-3.84-5.12-1.71-3.57-2.9-7.51-2.63-11.49.34-4.98,2.04-9.43,5.33-13.2,2.95-3.38,6.62-5.65,10.99-6.71,3.55-.87,7.15-1.08,10.67,0,4.69,1.43,8.86,3.77,11.87,7.81,1.96,2.63,3.22,5.57,3.96,8.75,1.07,4.57.45,8.98-1.31,13.26ZM775.72,108.75c-.52,2.3-1.33,4.54-2.04,6.8-.23.73-.28.71-1,.45-1.23-.45-2.45-.91-3.74-1.39.24-.57.49-1.17.72-1.77,1.67-4.38,2.49-8.89,2-13.59-.28-2.67-.95-5.25-1.97-7.73-2.48-6.01-6.53-10.65-12.16-13.87-4.66-2.67-9.7-3.91-15.07-3.69-9.07.37-16.41,4.16-21.84,11.42-7.7,10.29-7.23,25.15.99,35.01,2.94,3.53,6.69,6.21,10.88,8.05.71.31,1.42.64,2.12.97.11.05.25.17.28.28.43,1.58.84,3.15,1.27,4.78-.12-.01-.2-.01-.28-.03-2.71-.62-5.23-1.74-7.68-3.03-2.63-1.39-5.16-2.94-7.35-4.98-3.27-3.03-5.82-6.58-7.64-10.65-1.16-2.59-2-5.28-2.45-8.09-1.07-6.77-.15-13.25,2.73-19.47,2.12-4.59,5.23-8.4,9.07-11.64,2.79-2.35,5.92-4.13,9.34-5.36,1.61-.58,3.31-.95,4.98-1.34,2.97-.69,5.98-.87,9.02-.62,5.03.42,9.71,1.93,14.09,4.46,6.19,3.57,10.75,8.6,13.65,15.09,2.87,6.4,3.6,13.08,2.06,19.93Z"/>
  </g>
</svg>